<svg id="visual" viewBox="0 0 900 100" width="900" height="100" xmlns="http://www.w3.org/2000/svg" xmlns:xlink="http://www.w3.org/1999/xlink" version="1.1"><path d="M0 13L82 13L82 20L164 20L164 21L245 21L245 12L327 12L327 21L409 21L409 11L491 11L491 8L573 8L573 9L655 9L655 10L736 10L736 9L818 9L818 21L900 21L900 20L900 0L900 0L818 0L818 0L736 0L736 0L655 0L655 0L573 0L573 0L491 0L491 0L409 0L409 0L327 0L327 0L245 0L245 0L164 0L164 0L82 0L82 0L0 0Z" fill="#f8f8f5"></path><path d="M0 28L82 28L82 32L164 32L164 46L245 46L245 36L327 36L327 31L409 31L409 32L491 32L491 23L573 23L573 27L655 27L655 22L736 22L736 23L818 23L818 43L900 43L900 36L900 18L900 19L818 19L818 7L736 7L736 8L655 8L655 7L573 7L573 6L491 6L491 9L409 9L409 19L327 19L327 10L245 10L245 19L164 19L164 18L82 18L82 11L0 11Z" fill="#f3f3f1"></path><path d="M0 40L82 40L82 41L164 41L164 52L245 52L245 51L327 51L327 38L409 38L409 44L491 44L491 38L573 38L573 42L655 42L655 36L736 36L736 36L818 36L818 56L900 56L900 45L900 34L900 41L818 41L818 21L736 21L736 20L655 20L655 25L573 25L573 21L491 21L491 30L409 30L409 29L327 29L327 34L245 34L245 44L164 44L164 30L82 30L82 26L0 26Z" fill="#efefed"></path><path d="M0 67L82 67L82 69L164 69L164 78L245 78L245 73L327 73L327 78L409 78L409 75L491 75L491 54L573 54L573 62L655 62L655 78L736 78L736 81L818 81L818 75L900 75L900 68L900 43L900 54L818 54L818 34L736 34L736 34L655 34L655 40L573 40L573 36L491 36L491 42L409 42L409 36L327 36L327 49L245 49L245 50L164 50L164 39L82 39L82 38L0 38Z" fill="#eaeae9"></path><path d="M0 101L82 101L82 101L164 101L164 101L245 101L245 101L327 101L327 101L409 101L409 101L491 101L491 101L573 101L573 101L655 101L655 101L736 101L736 101L818 101L818 101L900 101L900 101L900 66L900 73L818 73L818 79L736 79L736 76L655 76L655 60L573 60L573 52L491 52L491 73L409 73L409 76L327 76L327 71L245 71L245 76L164 76L164 67L82 67L82 65L0 65Z" fill="#e6e6e6"></path></svg>