<svg id="visual" viewBox="0 0 900 100" width="900" height="100" xmlns="http://www.w3.org/2000/svg" xmlns:xlink="http://www.w3.org/1999/xlink" version="1.1"><path d="M0 33L82 29L164 35L245 32L327 20L409 24L491 27L573 36L655 30L736 45L818 34L900 36L900 0L818 0L736 0L655 0L573 0L491 0L409 0L327 0L245 0L164 0L82 0L0 0Z" fill="#e4e4e4"></path><path d="M0 57L82 46L164 50L245 63L327 52L409 64L491 65L573 53L655 68L736 62L818 57L900 60L900 34L818 32L736 43L655 28L573 34L491 25L409 22L327 18L245 30L164 33L82 27L0 31Z" fill="#e0dfdf"></path><path d="M0 63L82 59L164 59L245 72L327 59L409 71L491 72L573 63L655 81L736 68L818 64L900 77L900 58L818 55L736 60L655 66L573 51L491 63L409 62L327 50L245 61L164 48L82 44L0 55Z" fill="#dddbda"></path><path d="M0 77L82 78L164 74L245 84L327 76L409 78L491 84L573 76L655 91L736 78L818 76L900 89L900 75L818 62L736 66L655 79L573 61L491 70L409 69L327 57L245 70L164 57L82 57L0 61Z" fill="#dad7d6"></path><path d="M0 101L82 101L164 101L245 101L327 101L409 101L491 101L573 101L655 101L736 101L818 101L900 101L900 87L818 74L736 76L655 89L573 74L491 82L409 76L327 74L245 82L164 72L82 76L0 75Z" fill="#d6d3d1"></path></svg>