<svg id="visual" viewBox="0 0 900 100" width="900" height="100" xmlns="http://www.w3.org/2000/svg" xmlns:xlink="http://www.w3.org/1999/xlink" version="1.1"><path d="M0 13L13.7 12.3C27.3 11.7 54.7 10.3 82 10.2C109.3 10 136.7 11 163.8 11.3C191 11.7 218 11.3 245.2 11.2C272.3 11 299.7 11 327 10.3C354.3 9.7 381.7 8.3 409 7.7C436.3 7 463.7 7 491 8.2C518.3 9.3 545.7 11.7 573 12.2C600.3 12.7 627.7 11.3 654.8 10.3C682 9.3 709 8.7 736.2 8.3C763.3 8 790.7 8 818 8C845.3 8 872.7 8 886.3 8L900 8L900 0L886.3 0C872.7 0 845.3 0 818 0C790.7 0 763.3 0 736.2 0C709 0 682 0 654.8 0C627.7 0 600.3 0 573 0C545.7 0 518.3 0 491 0C463.7 0 436.3 0 409 0C381.7 0 354.3 0 327 0C299.7 0 272.3 0 245.2 0C218 0 191 0 163.8 0C136.7 0 109.3 0 82 0C54.7 0 27.3 0 13.7 0L0 0Z" fill="#ffffff"></path><path d="M0 23L13.7 24.7C27.3 26.3 54.7 29.7 82 30.7C109.3 31.7 136.7 30.3 163.8 29.7C191 29 218 29 245.2 29.8C272.3 30.7 299.7 32.3 327 33.2C354.3 34 381.7 34 409 33.7C436.3 33.3 463.7 32.7 491 33.7C518.3 34.7 545.7 37.3 573 36.8C600.3 36.3 627.7 32.7 654.8 31.2C682 29.7 709 30.3 736.2 28.7C763.3 27 790.7 23 818 22.5C845.3 22 872.7 25 886.3 26.5L900 28L900 6L886.3 6C872.7 6 845.3 6 818 6C790.7 6 763.3 6 736.2 6.3C709 6.7 682 7.3 654.8 8.3C627.7 9.3 600.3 10.7 573 10.2C545.7 9.7 518.3 7.3 491 6.2C463.7 5 436.3 5 409 5.7C381.7 6.3 354.3 7.7 327 8.3C299.7 9 272.3 9 245.2 9.2C218 9.3 191 9.7 163.8 9.3C136.7 9 109.3 8 82 8.2C54.7 8.3 27.3 9.7 13.7 10.3L0 11Z" fill="#f8fef1"></path><path d="M0 41L13.7 45.2C27.3 49.3 54.7 57.7 82 58.7C109.3 59.7 136.7 53.3 163.8 50.3C191 47.3 218 47.7 245.2 49.8C272.3 52 299.7 56 327 57.7C354.3 59.3 381.7 58.7 409 57.7C436.3 56.7 463.7 55.3 491 57.8C518.3 60.3 545.7 66.7 573 66.5C600.3 66.3 627.7 59.7 654.8 55.8C682 52 709 51 736.2 51.3C763.3 51.7 790.7 53.3 818 54.8C845.3 56.3 872.7 57.7 886.3 58.3L900 59L900 26L886.3 24.5C872.7 23 845.3 20 818 20.5C790.7 21 763.3 25 736.2 26.7C709 28.3 682 27.7 654.8 29.2C627.7 30.7 600.3 34.3 573 34.8C545.7 35.3 518.3 32.7 491 31.7C463.7 30.7 436.3 31.3 409 31.7C381.7 32 354.3 32 327 31.2C299.7 30.3 272.3 28.7 245.2 27.8C218 27 191 27 163.8 27.7C136.7 28.3 109.3 29.7 82 28.7C54.7 27.7 27.3 24.3 13.7 22.7L0 21Z" fill="#f0fce4"></path><path d="M0 89L13.7 87.5C27.3 86 54.7 83 82 81.8C109.3 80.7 136.7 81.3 163.8 81.3C191 81.3 218 80.7 245.2 80.5C272.3 80.3 299.7 80.7 327 81.5C354.3 82.3 381.7 83.7 409 84.5C436.3 85.3 463.7 85.7 491 86.8C518.3 88 545.7 90 573 90C600.3 90 627.7 88 654.8 87.5C682 87 709 88 736.2 88.2C763.3 88.3 790.7 87.7 818 88C845.3 88.3 872.7 89.7 886.3 90.3L900 91L900 57L886.3 56.3C872.7 55.7 845.3 54.3 818 52.8C790.7 51.3 763.3 49.7 736.2 49.3C709 49 682 50 654.8 53.8C627.7 57.7 600.3 64.3 573 64.5C545.7 64.7 518.3 58.3 491 55.8C463.7 53.3 436.3 54.7 409 55.7C381.7 56.7 354.3 57.3 327 55.7C299.7 54 272.3 50 245.2 47.8C218 45.7 191 45.3 163.8 48.3C136.7 51.3 109.3 57.7 82 56.7C54.7 55.7 27.3 47.3 13.7 43.2L0 39Z" fill="#e9fbd7"></path><path d="M0 101L13.7 101C27.3 101 54.7 101 82 101C109.3 101 136.7 101 163.8 101C191 101 218 101 245.2 101C272.3 101 299.7 101 327 101C354.3 101 381.7 101 409 101C436.3 101 463.7 101 491 101C518.3 101 545.7 101 573 101C600.3 101 627.7 101 654.8 101C682 101 709 101 736.2 101C763.3 101 790.7 101 818 101C845.3 101 872.7 101 886.3 101L900 101L900 89L886.3 88.3C872.7 87.7 845.3 86.3 818 86C790.7 85.7 763.3 86.3 736.2 86.2C709 86 682 85 654.8 85.5C627.7 86 600.3 88 573 88C545.7 88 518.3 86 491 84.8C463.7 83.7 436.3 83.3 409 82.5C381.7 81.7 354.3 80.3 327 79.5C299.7 78.7 272.3 78.3 245.2 78.5C218 78.7 191 79.3 163.8 79.3C136.7 79.3 109.3 78.7 82 79.8C54.7 81 27.3 84 13.7 85.5L0 87Z" fill="#e1f9c9"></path></svg>