<svg id="visual" viewBox="0 0 900 200" width="900" height="200" xmlns="http://www.w3.org/2000/svg" xmlns:xlink="http://www.w3.org/1999/xlink" version="1.1"><path d="M0 31L13.7 30.7C27.3 30.3 54.7 29.7 82 27C109.3 24.3 136.7 19.7 163.8 19.7C191 19.7 218 24.3 245.2 24C272.3 23.7 299.7 18.3 327 19.3C354.3 20.3 381.7 27.7 409 27.7C436.3 27.7 463.7 20.3 491 19.3C518.3 18.3 545.7 23.7 573 25C600.3 26.3 627.7 23.7 654.8 22C682 20.3 709 19.7 736.2 20.3C763.3 21 790.7 23 818 24.3C845.3 25.7 872.7 26.3 886.3 26.7L900 27L900 0L886.3 0C872.7 0 845.3 0 818 0C790.7 0 763.3 0 736.2 0C709 0 682 0 654.8 0C627.7 0 600.3 0 573 0C545.7 0 518.3 0 491 0C463.7 0 436.3 0 409 0C381.7 0 354.3 0 327 0C299.7 0 272.3 0 245.2 0C218 0 191 0 163.8 0C136.7 0 109.3 0 82 0C54.7 0 27.3 0 13.7 0L0 0Z" fill="#ffffff"></path><path d="M0 77L13.7 72.7C27.3 68.3 54.7 59.7 82 53.7C109.3 47.7 136.7 44.3 163.8 45.3C191 46.3 218 51.7 245.2 54.3C272.3 57 299.7 57 327 57C354.3 57 381.7 57 409 54C436.3 51 463.7 45 491 46C518.3 47 545.7 55 573 60C600.3 65 627.7 67 654.8 63.7C682 60.3 709 51.7 736.2 48.3C763.3 45 790.7 47 818 53.3C845.3 59.7 872.7 70.3 886.3 75.7L900 81L900 25L886.3 24.7C872.7 24.3 845.3 23.7 818 22.3C790.7 21 763.3 19 736.2 18.3C709 17.7 682 18.3 654.8 20C627.7 21.7 600.3 24.3 573 23C545.7 21.7 518.3 16.3 491 17.3C463.7 18.3 436.3 25.7 409 25.7C381.7 25.7 354.3 18.3 327 17.3C299.7 16.3 272.3 21.7 245.2 22C218 22.3 191 17.7 163.8 17.7C136.7 17.7 109.3 22.3 82 25C54.7 27.7 27.3 28.3 13.7 28.7L0 29Z" fill="#f8fef1"></path><path d="M0 139L13.7 136C27.3 133 54.7 127 82 124.3C109.3 121.7 136.7 122.3 163.8 124.3C191 126.3 218 129.7 245.2 126.7C272.3 123.7 299.7 114.3 327 107C354.3 99.7 381.7 94.3 409 88.7C436.3 83 463.7 77 491 85.3C518.3 93.7 545.7 116.3 573 124.7C600.3 133 627.7 127 654.8 126.7C682 126.3 709 131.7 736.2 131.7C763.3 131.7 790.7 126.3 818 126.7C845.3 127 872.7 133 886.3 136L900 139L900 79L886.3 73.7C872.7 68.3 845.3 57.7 818 51.3C790.7 45 763.3 43 736.2 46.3C709 49.7 682 58.3 654.8 61.7C627.7 65 600.3 63 573 58C545.7 53 518.3 45 491 44C463.7 43 436.3 49 409 52C381.7 55 354.3 55 327 55C299.7 55 272.3 55 245.2 52.3C218 49.7 191 44.3 163.8 43.3C136.7 42.3 109.3 45.7 82 51.7C54.7 57.7 27.3 66.3 13.7 70.7L0 75Z" fill="#f0fce4"></path><path d="M0 169L13.7 165.7C27.3 162.3 54.7 155.7 82 154.3C109.3 153 136.7 157 163.8 160.7C191 164.3 218 167.7 245.2 162.7C272.3 157.7 299.7 144.3 327 134C354.3 123.7 381.7 116.3 409 111.3C436.3 106.3 463.7 103.7 491 111C518.3 118.3 545.7 135.7 573 141.3C600.3 147 627.7 141 654.8 142.7C682 144.3 709 153.7 736.2 157.3C763.3 161 790.7 159 818 158C845.3 157 872.7 157 886.3 157L900 157L900 137L886.3 134C872.7 131 845.3 125 818 124.7C790.7 124.3 763.3 129.7 736.2 129.7C709 129.7 682 124.3 654.8 124.7C627.7 125 600.3 131 573 122.7C545.7 114.3 518.3 91.7 491 83.3C463.7 75 436.3 81 409 86.7C381.7 92.3 354.3 97.7 327 105C299.7 112.3 272.3 121.7 245.2 124.7C218 127.7 191 124.3 163.8 122.3C136.7 120.3 109.3 119.7 82 122.3C54.7 125 27.3 131 13.7 134L0 137Z" fill="#e9fbd7"></path><path d="M0 201L13.7 201C27.3 201 54.7 201 82 201C109.3 201 136.7 201 163.8 201C191 201 218 201 245.2 201C272.3 201 299.7 201 327 201C354.3 201 381.7 201 409 201C436.3 201 463.7 201 491 201C518.3 201 545.7 201 573 201C600.3 201 627.7 201 654.8 201C682 201 709 201 736.2 201C763.3 201 790.7 201 818 201C845.3 201 872.7 201 886.3 201L900 201L900 155L886.3 155C872.7 155 845.3 155 818 156C790.7 157 763.3 159 736.2 155.3C709 151.7 682 142.3 654.8 140.7C627.7 139 600.3 145 573 139.3C545.7 133.7 518.3 116.3 491 109C463.7 101.7 436.3 104.3 409 109.3C381.7 114.3 354.3 121.7 327 132C299.7 142.3 272.3 155.7 245.2 160.7C218 165.7 191 162.3 163.8 158.7C136.7 155 109.3 151 82 152.3C54.7 153.7 27.3 160.3 13.7 163.7L0 167Z" fill="#e1f9c9"></path></svg>